<?xml version="1.0" encoding="UTF-8"?>
<!DOCTYPE svg PUBLIC "-//W3C//DTD SVG 1.1//EN" "http://www.w3.org/Graphics/SVG/1.1/DTD/svg11.dtd">
<!-- Creator: CorelDRAW 2021 (64-Bit) -->
<svg xmlns="http://www.w3.org/2000/svg" xml:space="preserve" width="177.847mm" height="53.7454mm" version="1.1" style="shape-rendering:geometricPrecision; text-rendering:geometricPrecision; image-rendering:optimizeQuality; fill-rule:evenodd; clip-rule:evenodd"
viewBox="0 0 18069.1 5460.5"
 xmlns:xlink="http://www.w3.org/1999/xlink"
 xmlns:xodm="http://www.corel.com/coreldraw/odm/2003">
 <defs>
  <style type="text/css">
   <![CDATA[
    .fil1 {fill:#020202}
    .fil0 {fill:#040404}
   ]]>
  </style>
 </defs>
 <g id="Layer_x0020_1">
  <metadata id="CorelCorpID_0Corel-Layer"/>
  <path class="fil0" d="M6216.52 4818.89c-180.95,271.41 -1292.84,465.36 -1739.46,457.28 -656.9,-11.88 -1251.03,-218.04 -1697.76,-499.44 -345.8,-217.82 -889.78,-744.46 -1024.6,-1194.63 255.68,-103.08 482.42,-252.94 789.81,-357.82 725.65,-247.61 1558.49,-249.35 2266,58.8 671.46,292.45 1778.72,976.75 1406,1535.82zm-64.29 139.21c816.23,-386.04 486.86,-557.66 -256.14,-1218.68 -237.89,-205.61 -246.65,-78.39 -299.07,-529.16l-72.12 199.01c-1.35,-4.74 -3.99,17.52 -8.37,25.21 -310.8,-197.59 -221.35,-251.6 -351.37,-603.13l9.84 357.37c-231.04,-97.16 -290.11,-374.09 -328.5,-664.5 -52.03,81.39 -53.94,97.19 -51.11,229.26 1.45,67.51 15.94,158.97 22.53,229 -465.55,-108.9 -405.16,-520.41 -577.85,-872.77 -15.8,288.29 24.89,430.82 86.11,679.12 -313.48,-63.79 -424.76,-446.83 -461.99,-786.65 567.36,66.45 1150.1,299.34 1568.73,549.78 733.07,438.55 957.48,918.6 1090.74,1013.19 -204.4,-445.26 -688.1,-889.22 -1069.71,-1141.8 -571.54,-378.31 -845.04,-446.85 -1614.87,-602.65l-10.69 -350.21 -82.14 343.45 -496.72 -14.14 -65.83 -500.32c-98.3,198.27 -81.29,284.22 -98.01,521.79l-380.35 59.76 -157.46 -521.6c-36.2,224.67 -5.73,340.15 18.71,558.49l-274.88 66.05c-158.83,-189.29 -291.07,-468.97 -379.83,-725.75 -0.91,313.19 112.25,550.57 191.08,810.81 -90.18,40.89 -111.07,62.05 -185.4,125.97 71.37,-24.42 145.03,-44.72 222.9,-57.46l163.6 338.4c-344.32,-116.34 -829.07,-717.05 -890.11,-1069.08 -45.09,482.78 249.5,838.68 426.53,1142.95 -481.01,-120.5 -1124.9,-663.64 -1178.64,-1174.08 -70.77,656.51 491.19,1166.64 692.44,1449.55 -457.13,-71.92 -895.98,-472.62 -1124.49,-839.69 -78,-125.29 -154.39,-330.16 -229.8,-442.92 17.45,666.66 496.36,1354.72 994.31,1754.88 20.99,16.88 42.35,33.15 61.7,51.32 34.33,32.22 31.2,30.45 60.51,64.43 -234.98,38.76 -616.36,169.95 -731.39,395.83 473.24,-156.39 563.24,-159.98 1058.25,-36.1 -175.76,188.11 -423.67,342.6 -504.93,583.18 165.97,-161.44 417.94,-291.13 757.53,-318.44 -165.51,159.79 -344.83,286.14 -400.4,518.04 94.85,-98.28 421.24,-448.22 634.17,-260.31 -71.74,151.83 -208.3,140.01 -289.45,403.53 128.11,-84.67 215.4,-195.49 451.51,-230.88l114.65 151.05c-86.99,106.35 -220.16,244.64 -221.76,454.27 104.22,-253.59 341.76,-355.62 584.21,-192.51 -70.09,116.73 -123.46,134.98 -169.22,307.18 242.46,-238.04 220.76,-186.26 549.33,-102.82 -68.15,111.32 -121.85,101.68 -129.24,225.07 28.44,-233.09 594.6,-79.36 674.69,18.95 1.39,2.71 -132.66,135.42 -127.64,131 248.74,-219.33 794.75,24.33 1656.37,-113.09 383.92,-75.43 861.61,-158.41 1129.04,-389.29l-0.02 0.14zm40.63 -39.67c128.82,-145.74 206.98,-367.58 129.6,-640.94 387.71,303.32 231.36,456.57 -129.6,640.94zm-3604.57 -2903.3l139.79 437.17c-119.94,-112.6 -305.97,-229.38 -376.46,-380.35 71.62,-20.42 156.11,-46.86 236.67,-56.82zm499.02 -51.76l152.52 610.97c-137.9,-56.83 -473.26,-447.56 -491.47,-587.86 117.19,-14.73 230.74,-23.39 338.95,-23.1zm740.6 695.27c-258.75,-24.49 -469.09,-482.98 -532.56,-698.25 82.71,-2.4 170.01,-4.99 252.6,2.89 26.05,2.48 155.59,9.13 180.97,15.12 2.58,67.97 9.99,208.31 99,680.25z"/>
  <path class="fil1" d="M456.72 935c233.31,-79.1 504.76,-254.99 762.23,-361.75 261.46,-108.42 552.51,-205.06 854.95,-255.61 1181.47,-197.52 3088.11,845.86 4062.31,1496.01 156.71,104.58 644.75,512.44 613.57,-24.12 -26.18,-450.67 -197.51,-451.15 -509.42,-618.23 -703.79,-376.99 -1636.9,-750.96 -2406.65,-963.43 -674.71,-186.23 -1206.93,-312.84 -1919.7,-87.03 -424.94,134.62 -1256.41,570.66 -1457.28,814.17z"/>
  <path class="fil0" d="M11852.58 4818.94c180.95,271.41 1292.84,465.36 1739.46,457.28 656.9,-11.88 1251.03,-218.04 1697.76,-499.44 345.8,-217.82 889.78,-744.46 1024.6,-1194.63 -255.68,-103.08 -482.42,-252.94 -789.81,-357.82 -725.65,-247.61 -1558.49,-249.35 -2266,58.8 -671.46,292.45 -1778.72,976.75 -1406,1535.82zm64.29 139.21c-816.23,-386.04 -486.86,-557.66 256.14,-1218.68 237.89,-205.61 246.65,-78.39 299.07,-529.16l72.12 199.01c1.35,-4.74 3.99,17.52 8.37,25.21 310.8,-197.59 221.35,-251.6 351.37,-603.13l-9.84 357.37c231.04,-97.16 290.11,-374.09 328.5,-664.5 52.03,81.39 53.94,97.19 51.11,229.26 -1.45,67.51 -15.94,158.97 -22.53,229 465.55,-108.9 405.16,-520.41 577.85,-872.77 15.8,288.29 -24.89,430.82 -86.11,679.12 313.48,-63.79 424.76,-446.83 461.99,-786.65 -567.36,66.45 -1150.1,299.34 -1568.73,549.78 -733.07,438.55 -957.48,918.6 -1090.74,1013.19 204.4,-445.26 688.1,-889.22 1069.71,-1141.8 571.54,-378.31 845.04,-446.85 1614.87,-602.65l10.69 -350.21 82.14 343.45 496.72 -14.14 65.83 -500.32c98.3,198.27 81.29,284.22 98.01,521.79l380.35 59.76 157.46 -521.6c36.2,224.67 5.73,340.15 -18.71,558.49l274.88 66.05c158.83,-189.29 291.07,-468.97 379.83,-725.75 0.91,313.19 -112.25,550.57 -191.08,810.81 90.18,40.89 111.07,62.05 185.4,125.97 -71.37,-24.42 -145.03,-44.72 -222.9,-57.46l-163.6 338.4c344.32,-116.34 829.07,-717.05 890.11,-1069.08 45.09,482.78 -249.5,838.68 -426.53,1142.95 481.01,-120.5 1124.9,-663.64 1178.64,-1174.08 70.77,656.51 -491.19,1166.64 -692.44,1449.55 457.13,-71.92 895.98,-472.62 1124.49,-839.69 78,-125.29 154.39,-330.16 229.8,-442.92 -17.45,666.66 -496.36,1354.72 -994.31,1754.88 -20.99,16.88 -42.35,33.15 -61.7,51.32 -34.33,32.22 -31.2,30.45 -60.51,64.43 234.98,38.76 616.36,169.95 731.39,395.83 -473.24,-156.39 -563.24,-159.98 -1058.25,-36.1 175.76,188.11 423.67,342.6 504.93,583.18 -165.97,-161.44 -417.94,-291.13 -757.53,-318.44 165.51,159.79 344.83,286.14 400.4,518.04 -94.85,-98.28 -421.24,-448.22 -634.17,-260.31 71.74,151.83 208.3,140.01 289.45,403.53 -128.11,-84.67 -215.4,-195.49 -451.51,-230.88l-114.65 151.05c86.99,106.35 220.16,244.64 221.76,454.27 -104.22,-253.59 -341.76,-355.62 -584.21,-192.51 70.09,116.73 123.46,134.98 169.22,307.18 -242.46,-238.04 -220.76,-186.26 -549.33,-102.82 68.15,111.32 121.85,101.68 129.24,225.07 -28.44,-233.09 -594.6,-79.36 -674.69,18.95 -1.39,2.71 132.66,135.42 127.64,131 -248.74,-219.33 -794.75,24.33 -1656.37,-113.09 -383.92,-75.43 -861.61,-158.41 -1129.04,-389.29l0.02 0.14zm-40.63 -39.67c-128.82,-145.74 -206.98,-367.58 -129.6,-640.94 -387.71,303.32 -231.36,456.57 129.6,640.94zm3604.57 -2903.3l-139.79 437.17c119.94,-112.6 305.97,-229.38 376.46,-380.35 -71.62,-20.42 -156.11,-46.86 -236.67,-56.82zm-499.02 -51.76l-152.52 610.97c137.9,-56.83 473.26,-447.56 491.47,-587.86 -117.19,-14.73 -230.74,-23.39 -338.95,-23.1zm-740.6 695.27c258.75,-24.49 469.09,-482.98 532.56,-698.25 -82.71,-2.4 -170.01,-4.99 -252.6,2.89 -26.05,2.48 -155.59,9.13 -180.97,15.12 -2.58,67.97 -9.99,208.31 -99,680.25z"/>
  <path class="fil1" d="M17612.38 935.05c-233.31,-79.1 -504.76,-254.99 -762.23,-361.75 -261.46,-108.42 -552.51,-205.06 -854.95,-255.61 -1181.47,-197.52 -3088.11,845.86 -4062.31,1496.01 -156.71,104.58 -644.75,512.44 -613.57,-24.12 26.18,-450.67 197.51,-451.15 509.42,-618.23 703.79,-376.99 1636.9,-750.96 2406.65,-963.43 674.71,-186.23 1206.93,-312.84 1919.7,-87.03 424.94,134.62 1256.41,570.66 1457.28,814.17z"/>
 </g>
</svg>
