<?xml version="1.0" encoding="UTF-8"?>
<!DOCTYPE svg PUBLIC "-//W3C//DTD SVG 1.1//EN" "http://www.w3.org/Graphics/SVG/1.1/DTD/svg11.dtd">
<!-- Creator: CorelDRAW 2021 (64-Bit) -->
<svg xmlns="http://www.w3.org/2000/svg" xml:space="preserve" width="121.823mm" height="37.3478mm" version="1.1" style="shape-rendering:geometricPrecision; text-rendering:geometricPrecision; image-rendering:optimizeQuality; fill-rule:evenodd; clip-rule:evenodd"
viewBox="0 0 5492.08 1683.73"
 xmlns:xlink="http://www.w3.org/1999/xlink"
 xmlns:xodm="http://www.corel.com/coreldraw/odm/2003">
 <defs>
  <style type="text/css">
   <![CDATA[
    .fil0 {fill:#2E2E2E}
   ]]>
  </style>
 </defs>
 <g id="Layer_x0020_1">
  <metadata id="CorelCorpID_0Corel-Layer"/>
  <path class="fil0" d="M4785.27 969.53c-5.79,9.44 -114.99,76.08 -123.94,81.52 -76.87,46.68 -353.99,215.58 -396.5,221.02l-10.7 7.85c-2.16,1.27 -5.86,2.99 -9.12,4.54 -6.21,2.97 -11.93,5.45 -18.74,8.62 -460.15,214.92 -888.15,309.99 -1458.57,319.58 -279.75,4.7 -610.54,-32.01 -855.25,-91.75 -117.71,-28.73 -244.62,-62.18 -348.95,-103.12 -47.31,-18.57 -289.89,-109.71 -309.78,-132.26 -46.18,-6.18 -390.73,-212.37 -425.12,-234.73 -13.25,-8.62 -121.42,-74.19 -127.86,-84.21 -16.16,-4.98 -45.61,-28.16 -61.1,-38.18 -19.37,-12.53 -40.28,-25.41 -59.09,-38.11l-114.68 -75.83c-38.8,-27.74 -78.75,-50.46 -118.12,-76.08 -19.65,-12.79 -39.79,-24.21 -60.7,-36.9 -12.07,-7.32 -50.61,-28.09 -56.91,-35.02 85.8,4.97 203.92,27.3 288.18,41.88 286.09,49.52 642.15,82.69 936.34,75.73 110.41,-2.61 216.38,-12.01 326.47,-16.25 361.76,-13.97 611.77,52.88 959.85,55.31 203.77,1.42 430.89,-29.74 630.42,-47.47 236.4,-21.01 425.03,1.75 655.9,8.2 294.87,8.24 652.94,-25.63 940.93,-74.82 84.8,-14.49 203.23,-37.58 289.5,-41.99l-4.11 3.75c-0.6,0.49 -1.41,1.2 -2.08,1.72l-55.09 32.97c-20.91,12.65 -39.93,23.61 -60.36,37.06l-232.69 152.04c-19,12.53 -39.94,25.24 -59.14,38.08 -14.88,9.95 -43.46,32.09 -58.99,36.86zm-4501.79 -369.63c14.25,-7.41 53.08,-18.28 71.91,-24.84 176.13,-61.36 307.15,-118.78 476.69,-188.76 377.41,-155.79 788.89,-320.6 1252.39,-314.42 171.31,2.28 363.15,32.58 515.72,83.77 24.78,8.32 46.82,14.6 70.87,23.66 84.08,31.66 66.56,29.78 150.4,-0.67 69.36,-25.19 149.98,-48.68 224.62,-65.06 381.86,-83.79 707.54,-33.66 1056.17,65.93 196.08,56.02 383.79,136.87 558.06,207.61 142.42,57.82 260.13,109.94 407.22,164.01l139.35 49.14c-175.34,25.98 -398.06,65.61 -566.24,83.16 -192.89,20.13 -440.18,36.21 -638.78,28.76 -228.41,-8.57 -412.23,-27.55 -644.43,-6.6 -197.1,17.79 -411.18,46.57 -612.61,46.56 -203.26,0 -416,-29.53 -614.9,-46.8 -107.68,-9.36 -217.96,-12.73 -328.01,-9.02 -105.93,3.57 -211.39,12.48 -316.57,16 -199.13,6.65 -446.01,-8.5 -638.8,-29.23 -156.39,-16.82 -274.26,-39.65 -422.33,-62.82 -45.4,-7.1 -95.62,-12.35 -140.71,-20.37zm1667.37 -594.78c-473.31,15.79 -991.77,244.75 -1394.49,414.34 -123.43,51.98 -591.55,158.17 -554.25,213.49 0.43,0.64 370.09,214.57 408.45,239.25 22.36,14.39 41.53,29.31 64.07,42.78l322.73 209.5c65.09,37.09 130.75,79.49 203.61,120.05 46.05,25.64 93.35,50.46 142.25,75.22 181.69,92 405.12,183.54 641.31,244.87 401.9,104.38 847.03,141.17 1285.16,106.37 72.95,-5.79 144.31,-12.85 214.3,-22.64 61.37,-8.58 143.59,-18.79 199.44,-33.47 57.39,-2.61 311.69,-74.36 375,-94.85 119.41,-38.65 228.17,-80.25 332.58,-126.28 139.31,-61.42 387.41,-192.31 512.08,-275.3l454.18 -295.4c51.43,-35.06 329.71,-180.04 334.55,-198.21 11.69,-43.88 -368.7,-130.37 -461.54,-167.23 -219.97,-87.34 -426.07,-179.86 -653.9,-263.59 -529.27,-194.53 -1048.8,-276.4 -1603.95,-76.85 -23.16,8.33 -23.67,12.32 -47.53,2.85l-129.37 -42.54c-190.01,-53.2 -439.38,-91.81 -644.68,-72.34z"/>
 </g>
</svg>
