<?xml version="1.0" encoding="UTF-8"?>
<!DOCTYPE svg PUBLIC "-//W3C//DTD SVG 1.1//EN" "http://www.w3.org/Graphics/SVG/1.1/DTD/svg11.dtd">
<!-- Creator: CorelDRAW 2021 (64-Bit) -->
<svg xmlns="http://www.w3.org/2000/svg" xml:space="preserve" width="88.6458mm" height="97.8722mm" version="1.1" style="shape-rendering:geometricPrecision; text-rendering:geometricPrecision; image-rendering:optimizeQuality; fill-rule:evenodd; clip-rule:evenodd"
viewBox="0 0 1004355.55 1108890.52"
 xmlns:xlink="http://www.w3.org/1999/xlink"
 xmlns:xodm="http://www.corel.com/coreldraw/odm/2003">
 <defs>
  <style type="text/css">
   <![CDATA[
    .fil0 {fill:#1E1E1E}
    .fil1 {fill:#201E1E}
   ]]>
  </style>
 </defs>
 <g id="Layer_x0020_1">
  <metadata id="CorelCorpID_0Corel-Layer"/>
  <path class="fil0" d="M752916 1061228.68c146438.92,22712.09 273577.21,-37268.85 248186.71,-167323.48 -19583.88,-100319.08 -110026.61,-168884.75 -156232.56,-248469.96 -131594.37,-197336.61 -121364.53,-606792.06 -143936.13,-645435.24 -11956.53,130591.67 2319.25,312887.72 34498.67,457031.19 12483.38,55907.81 26577.88,107265.5 54259.3,159287.12 100634.06,189141.63 328160.54,384300.62 -36776,444910.37z"/>
  <path class="fil1" d="M638612.32 1073622.55c44530.24,-23894.94 98162.99,-55302.79 148749.1,-66993.07 28046.24,-6481.88 82364.46,-9265.66 97265.65,-18512.06 -174851.12,-73822.78 -234915.9,85417.89 -359831.25,98585.6l-39.65 4.53 -484.92 43.05 -1752.75 147.29c-4503.67,362.56 -9031.13,572.16 -13583.52,632.21 -1036.69,4.53 -2062.06,28.32 -3106.68,11.33l0 5.66c-6584.99,-12.46 -13224.36,-331.97 -19909.05,-944.92l0 21675.39c7310.11,449.8 14625.88,653.74 21959.78,606.15l304.78 0 54.38 0c5566.42,6.8 11127.18,-177.88 16690.2,-552.9l619.75 -38.52 0 -2.27c37123.83,-2607.03 74287.31,-13862.24 113064.18,-34667.49z"/>
  <path class="fil1" d="M373045.41 1073622.55c-44530.24,-23894.94 -98162.99,-55302.79 -148749.1,-66993.07 -28047.38,-6481.88 -82364.46,-9265.66 -97265.65,-18512.06 183472.11,-77460.84 240558.23,101682.08 378797.64,99424.01l0 21327.56c-43733.74,501.92 -87143.44,-10758.95 -132782.89,-35246.45z"/>
  <path class="fil0" d="M251439.55 1061243.41c-146438.92,22712.09 -273577.21,-37268.85 -248186.71,-167323.48 19583.88,-100319.08 110026.61,-168884.75 156232.56,-248469.96 131594.37,-197337.74 121364.53,-606792.06 143936.13,-645435.24 11956.53,130591.67 -2319.25,312887.72 -34498.67,457031.19 -12483.38,55907.81 -26577.88,107264.36 -54259.3,159287.12 -100634.06,189141.63 -328160.54,384300.62 36776,444910.37z"/>
 </g>
</svg>
